<?xml version="1.0" standalone="no"?>
<!DOCTYPE svg PUBLIC "-//W3C//DTD SVG 1.1//EN" "http://www.w3.org/Graphics/SVG/1.1/DTD/svg11.dtd" >
<svg xmlns="http://www.w3.org/2000/svg">
<metadata></metadata>
<defs>
<font id="thomas_headlinebold" horiz-adv-x="1198" >
<font-face units-per-em="2048" ascent="1536" descent="-512" />
<missing-glyph horiz-adv-x="376" />
<glyph horiz-adv-x="0" />
<glyph horiz-adv-x="682" />
<glyph horiz-adv-x="0" />
<glyph horiz-adv-x="0" />
<glyph unicode="&#xd;" horiz-adv-x="376" />
<glyph unicode=" "  horiz-adv-x="376" />
<glyph unicode="&#x09;" horiz-adv-x="376" />
<glyph unicode="&#xa0;" horiz-adv-x="376" />
<glyph unicode="!" horiz-adv-x="575" d="M125 139q0 69 47 116.5t115 47.5q69 0 116.5 -47.5t47.5 -116.5q0 -68 -47.5 -115t-116.5 -47q-67 0 -114.5 47.5t-47.5 114.5zM154 1411h268l-14 -991h-240z" />
<glyph unicode="&#x22;" horiz-adv-x="751" d="M94 1411h225l-32 -580h-158zM428 1411h225l-32 -580h-158z" />
<glyph unicode="#" horiz-adv-x="1323" d="M37 373l39 180h227l64 307h-226l37 180h225l78 371h205l-76 -371h238l78 371h204l-77 -371h225l-37 -180h-227l-64 -307h226l-37 -180h-228l-77 -373h-205l78 373h-238l-80 -373h-203l78 373h-227zM506 553h239l64 307h-240z" />
<glyph unicode="$" horiz-adv-x="1091" d="M63 408h265q3 -88 61 -142.5t150 -54.5q91 0 150 53.5t59 136.5q0 62 -35 100.5t-103 63.5q-205 74 -250 92q-262 102 -262 357q0 166 101.5 281t265.5 137v215h139v-213q167 -22 275 -137.5t108 -274.5h-258q-3 73 -51.5 123.5t-132.5 50.5q-73 0 -130 -40t-57 -120 q0 -101 125 -149q30 -12 132 -48t114 -40q281 -109 281 -377q0 -78 -24.5 -150.5t-72 -135t-127.5 -104t-182 -50.5v-224h-139v226q-184 23 -291.5 141t-110.5 283z" />
<glyph unicode="%" horiz-adv-x="1538" d="M68 1114q0 128 90 217.5t217 89.5t217 -89.5t90 -217.5t-90 -217.5t-217 -89.5t-217 89.5t-90 217.5zM227 1112q0 -61 43 -104t105 -43t105.5 43t43.5 104q0 62 -44 106t-105 44t-104.5 -44t-43.5 -106zM297 0l760 1411h178l-756 -1411h-182zM854 295q0 127 90 217 t217 90t217 -90t90 -217t-90 -217t-217 -90t-217 90t-90 217zM1014 293q0 -62 43 -105t104 -43q62 0 106 43.5t44 104.5t-44 105t-106 44q-61 0 -104 -43.5t-43 -105.5z" />
<glyph unicode="&#x26;" horiz-adv-x="1363" d="M82 373q0 136 78 236t219 179q-83 94 -110 136q-54 85 -54 176q0 141 111 233t264 92q152 0 260 -92.5t108 -234.5q0 -98 -57.5 -180t-175.5 -162l231 -244l174 174l164 -162l-180 -178l213 -223l-170 -148l-209 220l-69 -62q-96 -86 -182.5 -121t-182.5 -35 q-194 0 -313 112.5t-119 283.5zM332 385q0 -70 54.5 -121t129.5 -51q48 0 104.5 23t104.5 65l66 57l-252 269q-117 -71 -162 -129t-45 -113zM455 1090q0 -34 24 -71.5t92 -105.5q11 9 46 33.5t54.5 40.5t37.5 45t18 60q0 53 -41.5 87.5t-99.5 34.5q-57 0 -94 -36t-37 -88z " />
<glyph unicode="'" horiz-adv-x="419" d="M94 1411h225l-32 -580h-158z" />
<glyph unicode="(" horiz-adv-x="669" d="M102 528q0 358 112.5 615.5t297.5 345.5l82 -115q-129 -107 -202 -323t-73 -521t73 -521.5t202 -323.5l-82 -115q-185 88 -297.5 344t-112.5 614z" />
<glyph unicode=")" horiz-adv-x="669" d="M76 -315q129 107 201.5 323.5t72.5 521.5t-72.5 521t-201.5 323l82 115q185 -88 297 -345.5t112 -615.5t-112 -614t-297 -344z" />
<glyph unicode="*" horiz-adv-x="1110" d="M201 1178l53 161l246 -114l-31 272h170l-33 -272l252 116l51 -161l-268 -54l186 -202l-137 -99l-133 240l-135 -242l-137 101l184 198z" />
<glyph unicode="+" horiz-adv-x="1124" d="M111 535v188h356l2 360h188l-2 -360h359v-188h-359v-361h-188v361h-356z" />
<glyph unicode="," horiz-adv-x="514" d="M-14 -231q68 136 112 254t68 258h242q-56 -250 -269 -551z" />
<glyph unicode="-" horiz-adv-x="716" d="M61 373v219h594v-219h-594z" />
<glyph unicode="." horiz-adv-x="522" d="M98 139q0 69 47 116.5t115 47.5q69 0 116.5 -47.5t47.5 -116.5q0 -68 -47.5 -115t-116.5 -47q-68 0 -115 47.5t-47 114.5z" />
<glyph unicode="/" horiz-adv-x="1017" d="M25 -162l749 1643h211l-749 -1643h-211z" />
<glyph unicode="0" horiz-adv-x="1224" d="M86 702q0 216 57.5 380t178 260t290.5 96q128 0 229.5 -55t166 -153.5t98 -232.5t33.5 -295q0 -159 -33 -291t-96.5 -230.5t-165 -153t-232.5 -54.5t-232 54.5t-165 153t-96.5 230t-32.5 291.5zM352 700q0 -219 67 -352t193 -133t193 133t67 352q0 143 -28 252.5 t-87.5 174.5t-144.5 65t-144.5 -65t-87.5 -174.5t-28 -252.5z" />
<glyph unicode="1" horiz-adv-x="612" d="M37 1075v238l469 123v-1436h-260v1128z" />
<glyph unicode="2" horiz-adv-x="1087" d="M78 0v123l481 532q86 95 135 172t49 144q0 87 -57 154t-143 67q-88 0 -141.5 -64.5t-63.5 -158.5h-260q19 208 144 338.5t323 130.5q199 0 332 -128.5t133 -322.5q0 -119 -57 -220t-181 -243l-264 -286h500v-238h-930z" />
<glyph unicode="3" horiz-adv-x="1087" d="M61 334l228 65q16 -79 76 -130.5t155 -51.5q97 0 160 60t63 147t-64 151t-165 64h-80v203h66q80 0 134 53.5t54 124.5q0 27 -9 55t-27 55.5t-52.5 44.5t-79.5 17q-135 0 -188 -133l-228 59q55 157 166.5 238.5t268.5 81.5q184 0 299.5 -110.5t115.5 -276.5 q0 -96 -42.5 -172.5t-125.5 -122.5q104 -39 164 -135t60 -215q0 -125 -67 -225.5t-176.5 -154t-238.5 -53.5q-175 0 -307.5 99t-159.5 262z" />
<glyph unicode="4" horiz-adv-x="1183" d="M37 309v117l602 985h303v-881h176v-221h-176v-309h-260v309h-645zM344 530h338v555z" />
<glyph unicode="5" horiz-adv-x="1118" d="M35 207l164 170q55 -74 133.5 -117t165.5 -43q121 0 198.5 78.5t77.5 193.5q0 112 -75 177t-187 65q-94 0 -193 -63h-188l125 743h705v-240h-508l-52 -264q89 43 181 43q197 0 327.5 -131t130.5 -340q0 -223 -148 -364.5t-380 -141.5q-148 0 -269 62.5t-208 171.5z" />
<glyph unicode="6" horiz-adv-x="1161" d="M84 678q0 760 547 760q316 0 432 -273l-225 -100q-53 127 -201 127q-64 0 -114.5 -24.5t-81 -64t-50.5 -94t-27.5 -109.5t-7.5 -116q113 127 289 127q86 0 165 -32t140 -90t97 -146t36 -192q0 -210 -136 -342t-365 -132q-116 0 -204 37.5t-143 100.5t-89.5 155t-48 190.5 t-13.5 217.5zM367 449q0 -97 65.5 -165.5t161.5 -68.5t159.5 67.5t63.5 166.5t-63 171t-158 72t-162 -71.5t-67 -171.5z" />
<glyph unicode="7" horiz-adv-x="1071" d="M55 1174v237h961v-154l-656 -1257h-276l610 1174h-639z" />
<glyph unicode="8" horiz-adv-x="1124" d="M76 412q0 119 58.5 211.5t170.5 146.5q-74 42 -116 119t-42 168q0 159 118.5 270t297.5 111q178 0 295 -109t117 -272q0 -95 -42.5 -170t-117.5 -117q109 -47 171.5 -144t62.5 -218q0 -188 -139.5 -311.5t-346.5 -123.5q-136 0 -247 55.5t-175.5 156t-64.5 227.5z M338 432q0 -95 64 -160t161 -65q96 0 160.5 65t64.5 158q0 94 -65.5 159.5t-159.5 65.5q-92 0 -158.5 -63.5t-66.5 -159.5zM385 1051q0 -72 52 -125.5t126 -53.5t125 52.5t51 124.5t-51 125t-125 53t-126 -52.5t-52 -123.5z" />
<glyph unicode="9" horiz-adv-x="1159" d="M74 965q0 210 136 341.5t365 131.5q116 0 204 -37.5t143 -100.5t89.5 -155t48 -190.5t13.5 -217.5q0 -760 -547 -760q-316 0 -432 273l225 100q53 -127 201 -127q64 0 114.5 25.5t81 67t50.5 98.5t27.5 115t7.5 122q-113 -127 -289 -127q-86 0 -165 31t-140 86.5 t-97 139.5t-36 184zM340 967q0 -91 63 -157.5t158 -66.5t162.5 66t67.5 158q0 97 -66 165t-162 68t-159.5 -67t-63.5 -166z" />
<glyph unicode=":" horiz-adv-x="550" d="M113 139q0 69 46.5 116.5t114.5 47.5q69 0 116.5 -47.5t47.5 -116.5q0 -68 -47.5 -115t-116.5 -47q-67 0 -114 47t-47 115zM113 772q0 69 46.5 116.5t114.5 47.5q69 0 116.5 -47.5t47.5 -116.5q0 -68 -47.5 -115t-116.5 -47q-67 0 -114 47t-47 115z" />
<glyph unicode=";" horiz-adv-x="530" d="M-2 -231q69 134 113 252.5t67 259.5h242q-57 -252 -268 -551zM129 772q0 69 47 116.5t115 47.5q69 0 116.5 -47.5t47.5 -116.5q0 -68 -47.5 -115t-116.5 -47q-67 0 -114.5 47t-47.5 115z" />
<glyph unicode="&#x3c;" horiz-adv-x="1155" d="M74 557v205l973 416v-205l-736 -314l736 -313v-205z" />
<glyph unicode="=" horiz-adv-x="1124" d="M111 346v189h903v-189h-903zM111 725v188h903v-188h-903z" />
<glyph unicode="&#x3e;" horiz-adv-x="1155" d="M109 141v205l735 313l-735 314v205l972 -416v-205z" />
<glyph unicode="?" horiz-adv-x="1005" d="M70 1010q2 191 118.5 309.5t305.5 118.5q185 0 308.5 -114t123.5 -288q0 -49 -12.5 -93.5t-26.5 -73.5t-45 -66t-46 -51t-52 -48q-9 -8 -13 -12q-41 -37 -65 -62.5t-47 -69.5t-23 -89v-51h-252v49q0 173 174 340q7 6 33.5 31t37 35.5t31 34.5t29.5 40.5t17 41t8 48.5 q0 62 -43.5 103t-120.5 41q-82 0 -133.5 -47.5t-54.5 -126.5h-252zM307 139q0 69 47 116.5t115 47.5q69 0 116.5 -47.5t47.5 -116.5q0 -68 -47.5 -115t-116.5 -47q-67 0 -114.5 47.5t-47.5 114.5z" />
<glyph unicode="@" horiz-adv-x="1638" d="M106 381q0 150 57.5 286.5t155.5 234.5t234 156t287 58q182 0 339.5 -80t253 -224t95.5 -318q0 -131 -52.5 -242t-159 -181.5t-247.5 -70.5h-227q-159 0 -271 110.5t-112 270.5t112 269.5t275 109.5t257.5 -112t94.5 -279v-181q78 42 123 126.5t45 181.5q0 126 -74.5 233 t-196 167t-257.5 60q-115 0 -220 -46t-181 -123.5t-121.5 -184t-45.5 -223.5q0 -155 76.5 -284.5t208 -204t287.5 -74.5h356v-162h-356q-203 0 -372 96t-266.5 263t-97.5 368zM625 379q0 -91 63.5 -153t153.5 -62h192v205q0 94 -52.5 160.5t-141.5 66.5q-88 0 -151.5 -62.5 t-63.5 -154.5z" />
<glyph unicode="A" horiz-adv-x="1282" d="M-14 0l528 1411h262l520 -1411h-274l-121 324h-516l-123 -324h-276zM461 551h366l-184 534z" />
<glyph unicode="B" horiz-adv-x="1185" d="M147 0v1411h445q111 0 195 -29.5t133 -81.5t72.5 -117t23.5 -143q0 -210 -164 -290q130 -30 195 -122.5t65 -221.5q0 -176 -113 -291t-313 -115h-539zM408 229h165q273 0 273 191q0 94 -65 144t-185 50h-188v-385zM408 834h133q221 0 221 182q0 91 -53.5 128.5 t-153.5 37.5h-147v-348z" />
<glyph unicode="C" horiz-adv-x="1398" d="M80 705q0 200 97 368.5t264.5 266.5t365.5 98q169 0 316 -72t245 -199l-215 -159q-62 77 -152.5 120t-195.5 43q-190 0 -324.5 -137t-134.5 -329t134.5 -328.5t324.5 -136.5q105 0 196.5 43t153.5 120l213 -161q-100 -126 -247 -197.5t-316 -71.5q-148 0 -282 58 t-231 156.5t-154.5 233.5t-57.5 284z" />
<glyph unicode="D" horiz-adv-x="1357" d="M147 0v1411h461q151 0 278.5 -56t212.5 -151.5t132 -223t47 -271.5q0 -197 -83.5 -359t-233 -256t-334.5 -94h-480zM408 238h196q175 0 291.5 135t116.5 340q0 202 -117.5 330t-323.5 128h-163v-933z" />
<glyph unicode="E" horiz-adv-x="1028" d="M147 0v1411h791v-240h-530v-342h485v-235h-485v-356h538v-238h-799z" />
<glyph unicode="F" horiz-adv-x="972" d="M147 0v1411h771v-240h-510v-342h436v-235h-436v-594h-261z" />
<glyph unicode="G" horiz-adv-x="1558" d="M76 705q0 200 97 368.5t264.5 266.5t365.5 98q168 0 315.5 -76.5t245.5 -210.5l-215 -143q-62 77 -152.5 120t-195.5 43q-190 0 -324.5 -137t-134.5 -329q0 -126 62.5 -233t172 -169.5t240.5 -62.5q146 0 247.5 74t125.5 206h-375v221h678q-1 -191 -53 -339.5 t-143.5 -241t-212.5 -140t-267 -47.5q-152 0 -290 58t-236.5 156.5t-156.5 233.5t-58 284z" />
<glyph unicode="H" horiz-adv-x="1386" d="M147 0v1411h261v-577h565v577h260v-1411h-260v602h-565v-602h-261z" />
<glyph unicode="I" horiz-adv-x="559" d="M147 0v1411h261v-1411h-261z" />
<glyph unicode="J" horiz-adv-x="559" d="M-180 -119q39 -6 96 -6q100 0 165.5 74.5t65.5 236.5v1225h261v-1225q0 -120 -27 -215t-72.5 -157t-110 -103t-135 -58.5t-151.5 -17.5q-40 0 -92 9v237z" />
<glyph unicode="K" horiz-adv-x="1167" d="M150 0v1411h258v-551l436 551h315l-547 -682l605 -729h-320l-489 596v-596h-258z" />
<glyph unicode="L" horiz-adv-x="915" d="M147 0v1411h261v-1173h464v-238h-725z" />
<glyph unicode="M" horiz-adv-x="1593" d="M147 0v1411h238l412 -590l409 590h238v-1411h-260v956l-332 -475h-115l-329 475v-956h-261z" />
<glyph unicode="N" horiz-adv-x="1445" d="M147 0v1411h238l651 -940v940h258v-1411h-233l-653 942v-942h-261z" />
<glyph unicode="O" horiz-adv-x="1624" d="M80 705q0 200 97.5 368.5t265.5 266.5t368 98t368.5 -98t266.5 -266.5t98 -368.5q0 -150 -58 -285.5t-156 -233.5t-233.5 -155.5t-285.5 -57.5q-120 0 -231.5 37t-201.5 104.5t-157.5 157.5t-104 201.5t-36.5 231.5zM346 705q0 -193 136 -329t329 -136q194 0 330.5 136 t136.5 329q0 127 -62.5 234.5t-170 169.5t-234.5 62q-193 0 -329 -136t-136 -330z" />
<glyph unicode="P" horiz-adv-x="1136" d="M147 0v1411h492q146 0 250 -61t153.5 -161.5t49.5 -230.5q0 -93 -27.5 -172t-81 -140.5t-141 -96.5t-199.5 -35h-235v-514h-261zM408 754h178q121 0 180 55t59 149t-54.5 153.5t-164.5 59.5h-198v-417z" />
<glyph unicode="Q" horiz-adv-x="1615" d="M80 705q0 200 97.5 368.5t265.5 266.5t368 98t368.5 -98t266.5 -266.5t98 -368.5q0 -178 -79 -331t-216 -255l137 -203l-184 -119l-145 217q-128 -41 -246 -41q-120 0 -231.5 37t-201.5 104.5t-157.5 157.5t-104 201.5t-36.5 231.5zM346 705q0 -193 136 -329t329 -136 q51 0 90 8l-145 217l184 119l162 -244q81 66 128.5 161.5t47.5 203.5q0 127 -62.5 234.5t-170 169.5t-234.5 62q-193 0 -329 -136t-136 -330z" />
<glyph unicode="R" horiz-adv-x="1150" d="M147 0v1411h480q108 0 194.5 -35.5t140.5 -96t82.5 -138t28.5 -164.5q0 -159 -89 -276.5t-245 -147.5l389 -553h-311l-364 526h-45v-526h-261zM408 766h151q125 0 186.5 55t61.5 146q0 96 -66.5 150t-183.5 54h-149v-405z" />
<glyph unicode="S" horiz-adv-x="1091" d="M63 408h265q3 -88 61 -142.5t150 -54.5q91 0 150 53.5t59 136.5q0 62 -35 100.5t-103 63.5q-205 74 -250 92q-262 102 -262 357q0 186 124 305t315 119q192 0 321 -119.5t129 -296.5h-258q-3 73 -51.5 123.5t-132.5 50.5q-73 0 -130 -40t-57 -120q0 -101 125 -149 q30 -12 132 -48t114 -40q281 -109 281 -377q0 -83 -27.5 -160t-82 -142t-146.5 -104t-209 -39q-109 0 -200.5 34.5t-152 93.5t-94 137t-35.5 166z" />
<glyph unicode="T" horiz-adv-x="1017" d="M31 1171v240h952v-240h-346v-1171h-260v1171h-346z" />
<glyph unicode="U" horiz-adv-x="1341" d="M141 530v881h260v-811q0 -184 68 -280.5t203 -96.5q268 0 268 377v811h260v-881q0 -259 -150.5 -407t-383.5 -148q-111 0 -206 35.5t-166.5 103.5t-112 175t-40.5 241z" />
<glyph unicode="V" horiz-adv-x="1118" d="M-20 1411h272l305 -973l307 973h275l-473 -1411h-217z" />
<glyph unicode="W" horiz-adv-x="1759" d="M-20 1411h270l282 -958l248 850h199l240 -850l288 958h273l-445 -1411h-221l-237 842l-242 -842h-221z" />
<glyph unicode="X" horiz-adv-x="1187" d="M-27 0l471 748l-415 663h311l254 -442l260 442h311l-420 -663l469 -748h-309l-311 524l-318 -524h-303z" />
<glyph unicode="Y" d="M-20 1411h305l311 -518l311 518h312l-494 -766v-645h-260v645z" />
<glyph unicode="Z" horiz-adv-x="1163" d="M53 0v106l666 1065h-613v240h994v-113l-668 -1060h662v-238h-1041z" />
<glyph unicode="[" horiz-adv-x="647" d="M152 -420v1901h423v-181h-206v-1540h206v-180h-423z" />
<glyph unicode="\" horiz-adv-x="1017" d="M31 1481h211l749 -1643h-211z" />
<glyph unicode="]" horiz-adv-x="647" d="M70 -240h206v1540h-206v181h424v-1901h-424v180z" />
<glyph unicode="_" horiz-adv-x="1267" d="M53 -100h1157v-189h-1157v189z" />
<glyph unicode="`" horiz-adv-x="1021" d="M229 1407l220 61l208 -321l-155 -45z" />
<glyph unicode="a" d="M70 479q0 145 69.5 261.5t175.5 177.5t222 61q179 0 294 -145v122h250v-956h-250v127q-106 -150 -290 -150q-90 0 -175 37t-150.5 101.5t-105.5 159.5t-40 204zM315 477q0 -116 74 -194t184 -78q114 0 188.5 76.5t74.5 193.5q0 119 -77 196t-188 77q-107 0 -181.5 -77.5 t-74.5 -193.5z" />
<glyph unicode="b" d="M117 0v1411h250v-577q115 145 295 145q86 0 169.5 -36.5t149.5 -100t106.5 -159t40.5 -204.5t-40 -204t-105.5 -159.5t-150.5 -101.5t-175 -37q-184 0 -290 150v-127h-250zM362 475q0 -117 74.5 -193.5t188.5 -76.5q110 0 184 78t74 194t-74.5 193.5t-181.5 77.5 q-111 0 -188 -77t-77 -196z" />
<glyph unicode="c" horiz-adv-x="1001" d="M70 477q0 136 68.5 251.5t186 183t255.5 67.5q118 0 221.5 -50t173.5 -136l-184 -152q-89 107 -211 107q-109 0 -187 -80.5t-78 -192.5t77.5 -191t185.5 -79q62 0 117.5 28.5t92.5 73.5l187 -145q-70 -86 -173.5 -135.5t-221.5 -49.5q-138 0 -255.5 67t-186 182 t-68.5 251z" />
<glyph unicode="d" d="M70 479q0 145 69.5 261.5t175.5 177.5t222 61q179 0 294 -145v577h250v-1411h-250v127q-106 -150 -290 -150q-90 0 -175 37t-150.5 101.5t-105.5 159.5t-40 204zM315 477q0 -116 74 -194t184 -78q114 0 188.5 76.5t74.5 193.5q0 119 -77 196t-188 77q-107 0 -181.5 -77.5 t-74.5 -193.5z" />
<glyph unicode="e" horiz-adv-x="1116" d="M70 477q0 136 66 251.5t178.5 183t244.5 67.5t245 -67.5t178 -182t65 -246.5q0 -23 -5 -73h-720q21 -90 85.5 -147.5t157.5 -57.5q69 0 130 31.5t98 80.5l233 -79q-69 -119 -193.5 -190t-265.5 -71q-138 0 -252.5 67t-179.5 182t-65 251zM330 571h454q-25 78 -86.5 127.5 t-138.5 49.5t-139.5 -49.5t-89.5 -127.5z" />
<glyph unicode="f" horiz-adv-x="632" d="M6 748v208h144q0 119 30.5 208t87.5 142.5t131.5 79t167.5 25.5h84v-211h-55q-88 0 -142.5 -50t-54.5 -146v-48h226v-208h-226v-748h-249v748h-144z" />
<glyph unicode="g" horiz-adv-x="1202" d="M72 479q0 145 69.5 261.5t175.5 177.5t222 61q180 0 295 -145v122h249v-868q0 -149 -37 -261t-104.5 -180.5t-157 -102t-200.5 -33.5q-191 0 -319 92t-169 243l244 48q54 -156 238 -156q130 0 193 91t63 298q-106 -150 -291 -150q-90 0 -175 37t-150.5 101.5 t-105.5 159.5t-40 204zM317 477q0 -115 74 -193.5t187 -78.5q111 0 185.5 77t74.5 193q0 119 -77.5 196t-185.5 77q-109 0 -183.5 -77.5t-74.5 -193.5z" />
<glyph unicode="h" horiz-adv-x="1122" d="M117 0v1411h250v-596q96 164 297 164q163 0 254.5 -107t91.5 -309v-563h-250v518q0 117 -49.5 173.5t-137.5 56.5q-95 0 -150.5 -68.5t-55.5 -214.5v-465h-250z" />
<glyph unicode="i" horiz-adv-x="483" d="M88 1272q0 63 45.5 108t108.5 45t108 -45t45 -108t-45 -108.5t-108 -45.5t-108.5 45.5t-45.5 108.5zM117 0v956h250v-956h-250z" />
<glyph unicode="j" horiz-adv-x="483" d="M-111 -258h29q39 0 72.5 11t63 35t46.5 68.5t17 106.5v993h250v-966q0 -113 -22.5 -197.5t-59.5 -136.5t-93 -84t-115 -43.5t-132 -11.5h-56v225zM88 1272q0 63 45.5 108t108.5 45t108 -45t45 -108t-45 -108.5t-108 -45.5t-108.5 45.5t-45.5 108.5z" />
<glyph unicode="k" horiz-adv-x="1015" d="M117 0v1411h250v-780l303 325h317l-397 -424l463 -532h-318l-368 426v-426h-250z" />
<glyph unicode="l" horiz-adv-x="591" d="M113 479v932h249v-897q0 -172 44 -236.5t147 -64.5h37q0 -38 1 -113t1 -112h-57q-101 0 -175 23.5t-131.5 78.5t-86.5 152t-29 237z" />
<glyph unicode="m" horiz-adv-x="1712" d="M117 0v956h250v-141q101 164 284 164q99 0 179 -47.5t126 -140.5q105 188 314 188q329 0 329 -449v-530h-249v516q0 118 -45.5 175t-126.5 57q-85 0 -139 -61t-54 -185v-502h-254v514q0 119 -44.5 178.5t-125.5 59.5q-86 0 -140 -64t-54 -188v-500h-250z" />
<glyph unicode="n" horiz-adv-x="1122" d="M117 0v956h250v-141q96 164 297 164q163 0 254.5 -107t91.5 -309v-563h-250v518q0 117 -49.5 173.5t-137.5 56.5q-95 0 -150.5 -68.5t-55.5 -214.5v-465h-250z" />
<glyph unicode="o" horiz-adv-x="1157" d="M70 477q0 136 68.5 251.5t186 183t255.5 67.5q210 0 358.5 -147.5t148.5 -354.5q0 -136 -67.5 -251t-184.5 -182t-255 -67t-255.5 67t-186 182t-68.5 251zM315 475q0 -112 78 -191t187 -79t185.5 79t76.5 191q0 113 -76.5 193t-185.5 80t-187 -80.5t-78 -192.5z" />
<glyph unicode="p" horiz-adv-x="1200" d="M117 -483v1439h250v-127q106 150 290 150q90 0 175 -37t150.5 -101.5t105.5 -159.5t40 -204t-40.5 -204.5t-106.5 -159t-149.5 -100t-169.5 -36.5q-179 0 -295 146v-606h-250zM362 481q0 -119 77 -195.5t188 -76.5q107 0 181.5 77t74.5 193t-74 194.5t-184 78.5 q-114 0 -188.5 -77t-74.5 -194z" />
<glyph unicode="q" d="M70 477q0 109 40 204t105.5 159.5t150.5 101.5t175 37q184 0 290 -150v127h250v-1439h-250v606q-116 -146 -294 -146q-116 0 -222 61t-175.5 177.5t-69.5 261.5zM315 479q0 -116 74.5 -193t181.5 -77q111 0 188 76.5t77 195.5q0 117 -74.5 194t-188.5 77 q-110 0 -184 -78.5t-74 -194.5z" />
<glyph unicode="r" horiz-adv-x="761" d="M117 0v956h250v-159h4q45 98 102 140t137 42q96 0 158 -41l-49 -223q-50 33 -119 33q-233 0 -233 -371v-377h-250z" />
<glyph unicode="s" horiz-adv-x="915" d="M47 293h229q4 -54 55.5 -87.5t123.5 -33.5q65 0 111 26t46 74q0 35 -26 63t-70 38l-174 41q-268 63 -268 266q0 132 109.5 215.5t275.5 83.5q72 0 137.5 -17.5t120.5 -51.5t88.5 -91.5t36.5 -130.5h-228q-4 43 -50 71.5t-105 28.5q-54 0 -99 -24t-45 -68q0 -63 91 -86 l231 -59q66 -17 112.5 -51t68 -75t30 -75.5t8.5 -68.5q0 -92 -57.5 -162.5t-149 -106t-200.5 -35.5q-107 0 -195.5 34.5t-146 107.5t-60.5 174z" />
<glyph unicode="t" horiz-adv-x="647" d="M12 748v208h138v330h249v-330h191v-208h-191v-342q0 -57 14 -96.5t40.5 -59.5t56.5 -28.5t68 -8.5h51v-225h-76q-73 0 -131 11.5t-110 40t-87 73.5t-55 115.5t-20 162.5v357h-138z" />
<glyph unicode="u" horiz-adv-x="1120" d="M113 393v563h249v-518q0 -118 49.5 -175.5t137.5 -57.5q95 0 150 70t55 217v464h250v-956h-250v141q-96 -164 -297 -164q-162 0 -253 108t-91 308z" />
<glyph unicode="v" horiz-adv-x="1005" d="M-8 956h268l244 -604l241 604h269l-420 -956h-184z" />
<glyph unicode="w" horiz-adv-x="1525" d="M-8 956h268l207 -587l203 569h186l199 -576l211 594h268l-381 -956h-178l-213 610l-211 -610h-178z" />
<glyph unicode="x" horiz-adv-x="1064" d="M-8 0l395 518l-328 438h301l177 -243l174 243h301l-332 -438l393 -518h-299l-239 326l-240 -326h-303z" />
<glyph unicode="y" horiz-adv-x="1034" d="M-8 956h276l258 -581l246 581h270l-520 -1171q-18 -40 -37.5 -73t-39.5 -58.5t-41.5 -45.5t-43.5 -34t-45.5 -24.5t-47 -16t-48.5 -9.5t-50 -5t-51 -2q-13 -1 -26 -1l-26 1h-27h-23l29 225h21q40 0 69 5.5t62 22.5t62 54t54 94l78 174z" />
<glyph unicode="z" horiz-adv-x="966" d="M45 0v102l492 629h-457v225h835v-108l-485 -623h481v-225h-866z" />
<glyph unicode="{" horiz-adv-x="770" d="M106 459v153q58 8 89.5 49.5t31.5 112.5v322q0 393 344 393h127v-189h-65q-54 -2 -87.5 -13t-59 -38t-36 -76t-10.5 -126v-254q0 -100 -35 -161.5t-106 -96.5q71 -35 106 -95.5t35 -160.5v-254q0 -102 21.5 -157t60.5 -74.5t111 -22.5h65v-189h-127q-344 0 -344 393v322 q0 71 -31.5 112.5t-89.5 49.5z" />
<glyph unicode="|" horiz-adv-x="673" d="M229 -303v1829h215v-1829h-215z" />
<glyph unicode="}" horiz-adv-x="770" d="M68 -229h65q72 3 111 22.5t60.5 74.5t21.5 157v254q0 100 35 160.5t106 95.5q-71 35 -106 96.5t-35 161.5v254q0 77 -10.5 126t-36 76t-59 38t-87.5 13h-65v189h127q344 0 344 -393v-322q0 -71 31 -112.5t89 -49.5v-153q-58 -8 -89 -49.5t-31 -112.5v-322 q0 -393 -344 -393h-127v189z" />
<glyph unicode="&#xa1;" horiz-adv-x="559" d="M117 1272q0 68 47.5 115t114.5 47q69 0 116 -47t47 -115q0 -69 -47 -116.5t-116 -47.5q-68 0 -115 47.5t-47 116.5zM145 0l15 991h239l15 -991h-269z" />
<glyph unicode="&#xa2;" horiz-adv-x="1015" d="M70 477q0 189 126.5 330t315.5 166v237h141v-237q95 -13 178.5 -60.5t143.5 -119.5l-184 -152q-89 107 -211 107q-109 0 -187 -80.5t-78 -192.5t77.5 -191t185.5 -79q62 0 117.5 28.5t92.5 73.5l187 -145q-59 -73 -142.5 -119.5t-179.5 -58.5v-230h-141v228 q-189 25 -315.5 165.5t-126.5 329.5z" />
<glyph unicode="&#xa3;" horiz-adv-x="1099" d="M63 0v238h185v383h-185v210h185v142q0 68 18 133.5t55.5 125.5t91.5 106t132 73t170 27q213 0 375 -146l-154 -192q-92 96 -207 96q-110 0 -165.5 -68.5t-55.5 -175.5v-121h311v-210h-311v-383h483v-238h-928z" />
<glyph unicode="&#xa4;" horiz-adv-x="1280" d="M80 1184l119 119l180 -181q128 84 264 84q133 0 258 -84l176 181l121 -119l-180 -180q86 -134 86 -265t-84 -256l180 -180l-119 -121l-178 180q-130 -86 -264 -86q-126 0 -262 84l-178 -178l-117 119l176 180q-82 125 -82 260q0 133 84 260zM383 741q0 -107 75.5 -183.5 t182.5 -76.5t181.5 76t74.5 184t-74.5 185.5t-181.5 77.5q-106 0 -182 -77t-76 -186z" />
<glyph unicode="&#xa5;" horiz-adv-x="1218" d="M-10 1411h305l311 -518l312 518h311l-402 -623h230v-163h-322v-154h322v-164h-322v-307h-260v307h-321v164h321v154h-321v163h229z" />
<glyph unicode="&#xa6;" horiz-adv-x="684" d="M231 -303v725h220v-725h-220zM231 768v758h220v-758h-220z" />
<glyph unicode="&#xa7;" horiz-adv-x="1253" d="M182 653q0 101 46.5 178t154.5 144q-127 101 -127 244q0 155 106.5 248.5t280.5 93.5q168 0 270.5 -92t108.5 -259h-223q-6 81 -49.5 122.5t-112.5 41.5q-71 0 -116.5 -42.5t-45.5 -112.5q0 -92 94 -144q53 -30 127 -65.5t123 -57.5t103.5 -56.5t86.5 -69.5t53 -88 t21 -120q0 -103 -48.5 -182t-151.5 -147q79 -57 112 -117.5t33 -138.5q0 -164 -115 -264.5t-288 -100.5q-181 0 -290 113t-118 295h227q4 -107 53.5 -162t133.5 -55q81 0 133.5 47.5t52.5 124.5q0 35 -12.5 64t-32.5 50t-57.5 43t-73.5 37.5t-94 38.5q-94 36 -156.5 70 t-112.5 80t-73 104.5t-23 134.5zM412 662q0 -84 86.5 -147.5t203.5 -96.5q67 15 109.5 65.5t42.5 112.5q0 48 -26.5 88.5t-73.5 70.5t-90 49t-99 38q-65 -15 -109 -67t-44 -113z" />
<glyph unicode="&#xa8;" horiz-adv-x="1036" d="M174 1280q0 59 40.5 100t98.5 41q59 0 100.5 -41.5t41.5 -99.5t-41.5 -98.5t-100.5 -40.5t-99 40.5t-40 98.5zM582 1280q0 59 40.5 100t98.5 41q59 0 100 -41.5t41 -99.5t-41 -98.5t-100 -40.5t-99 40.5t-40 98.5z" />
<glyph unicode="&#xa9;" horiz-adv-x="1619" d="M78 705q0 200 97.5 368.5t265.5 266.5t368 98t368.5 -98t266.5 -266.5t98 -368.5q0 -150 -58 -285.5t-156 -233.5t-233.5 -155.5t-285.5 -57.5q-120 0 -231.5 37t-201.5 104.5t-157.5 157.5t-104 201.5t-36.5 231.5zM215 705q0 -122 47 -232t126 -189t189 -126t232 -47 t232 47t190 126t127 189t47 232q0 162 -79.5 299t-217 216.5t-299.5 79.5t-299 -79.5t-216 -216.5t-79 -299zM418 696q0 167 117 286.5t280 119.5q145 0 277 -115l-72 -151q-84 102 -195 102q-100 0 -165.5 -70t-65.5 -172q0 -101 65 -169t168 -68q104 0 197 96l70 -147 q-72 -58 -136 -85.5t-139 -27.5q-168 0 -284.5 117.5t-116.5 283.5z" />
<glyph unicode="&#xab;" horiz-adv-x="1003" d="M72 473l301 430l174 -53l-262 -377l262 -373l-174 -55zM459 473l297 430l174 -53l-260 -377l262 -373l-176 -55z" />
<glyph unicode="&#xac;" horiz-adv-x="1157" d="M96 436v242h955v-565h-258v323h-697z" />
<glyph unicode="&#xad;" horiz-adv-x="716" d="M61 373v219h594v-219h-594z" />
<glyph unicode="&#xae;" horiz-adv-x="1619" d="M78 705q0 200 97.5 368.5t265.5 266.5t368 98t368.5 -98t266.5 -266.5t98 -368.5q0 -150 -58 -285.5t-156 -233.5t-233.5 -155.5t-285.5 -57.5q-120 0 -231.5 37t-201.5 104.5t-157.5 157.5t-104 201.5t-36.5 231.5zM215 705q0 -122 47 -232t126 -189t189 -126t232 -47 t232 47t190 126t127 189t47 232q0 162 -79.5 299t-217 216.5t-299.5 79.5t-299 -79.5t-216 -216.5t-79 -299zM551 311v776h287q124 0 193 -69.5t69 -175.5q0 -84 -44.5 -146t-129.5 -88l225 -297h-213l-188 275h-23v-275h-176zM727 733h57q63 0 100.5 26t37.5 79 q0 45 -29 74.5t-84 29.5h-82v-209z" />
<glyph unicode="&#xaf;" horiz-adv-x="1024" d="M213 1169v166h598v-166h-598z" />
<glyph unicode="&#xb0;" horiz-adv-x="976" d="M207 1147q0 117 81.5 198.5t198.5 81.5t199 -81.5t82 -198.5t-82 -199t-199 -82t-198.5 82t-81.5 199zM344 1147q0 -60 41.5 -101.5t101.5 -41.5t102 41.5t42 101.5t-42 101.5t-102 41.5t-101.5 -41.5t-41.5 -101.5z" />
<glyph unicode="&#xb1;" horiz-adv-x="1124" d="M111 0v188h903v-188h-903zM111 631v188h356l2 361h188l-2 -361h359v-188h-359v-340h-188v340h-356z" />
<glyph unicode="&#xb2;" horiz-adv-x="729" d="M82 553v84l274 309q51 58 79 104t28 91q0 43 -28 69.5t-70 26.5q-53 0 -80.5 -37.5t-32.5 -91.5h-170q12 131 85 211t193 80q119 0 198 -76t79 -193q0 -72 -33 -131.5t-106 -138.5l-136 -149h273v-158h-553z" />
<glyph unicode="&#xb3;" horiz-adv-x="720" d="M66 758l151 43q8 -46 41 -76.5t84 -30.5q52 0 85.5 31.5t33.5 77.5t-34 79t-87 33h-57v140h49q39 0 67.5 28.5t28.5 63.5q0 32 -21.5 61t-64.5 29q-68 0 -104 -80l-152 39q36 97 103.5 150t162.5 53q111 0 180.5 -67t69.5 -163q0 -112 -86 -172q53 -30 86 -86.5 t33 -122.5q0 -110 -84.5 -183t-202.5 -73q-106 0 -185.5 62t-96.5 164z" />
<glyph unicode="&#xb4;" horiz-adv-x="1021" d="M324 1149l211 319l215 -61l-271 -305z" />
<glyph unicode="&#xb5;" horiz-adv-x="1124" d="M117 -432v1388h250v-518q0 -118 49 -175.5t137 -57.5q95 0 150 70t55 217v464h250v-956h-250v141q-83 -164 -256 -164q-74 0 -158 25l21 -434h-248z" />
<glyph unicode="&#xb6;" horiz-adv-x="1142" d="M-10 1042q0 176 121 272.5t344 96.5h602v-160h-94v-1452h-183v1452h-205v-1452h-184v875q-183 0 -292 98.5t-109 269.5z" />
<glyph unicode="&#xb7;" horiz-adv-x="522" d="M98 586q0 69 47 116.5t115 47.5q69 0 116.5 -47.5t47.5 -116.5q0 -68 -47.5 -115t-116.5 -47q-68 0 -115 47t-47 115z" />
<glyph unicode="&#xb8;" horiz-adv-x="1024" d="M287 -459l239 371l215 -62l-299 -354z" />
<glyph unicode="&#xb9;" horiz-adv-x="622" d="M143 1161v158l287 76v-840h-168v637z" />
<glyph unicode="&#xbb;" horiz-adv-x="1003" d="M72 100l262 373l-260 377l174 53l297 -430l-297 -428zM457 100l262 373l-262 377l174 53l301 -430l-301 -428z" />
<glyph unicode="&#xbc;" horiz-adv-x="1619" d="M156 1161v158l286 76v-840h-168v637zM274 0l879 1411h158l-879 -1411h-158zM911 174v80l346 569h191v-506h100v-143h-100v-174h-168v174h-369zM1112 317h168v275z" />
<glyph unicode="&#xbd;" horiz-adv-x="1644" d="M156 1161v158l286 76v-840h-168v637zM274 0l879 1411h158l-879 -1411h-158zM997 0v84l275 309q106 121 106 195q0 43 -28 69.5t-70 26.5q-53 0 -80.5 -37.5t-32.5 -91.5h-170q12 131 85.5 211t193.5 80q119 0 197.5 -75.5t78.5 -192.5q0 -73 -33.5 -132.5t-105.5 -138.5 l-135 -149h272v-158h-553z" />
<glyph unicode="&#xbe;" horiz-adv-x="1732" d="M74 758l151 43q8 -46 41 -76.5t84 -30.5q52 0 85.5 31.5t33.5 77.5t-34 79t-87 33h-57v140h49q39 0 67.5 28.5t28.5 63.5q0 32 -21.5 61t-64.5 29q-68 0 -104 -80l-152 39q36 97 103.5 150t162.5 53q111 0 180.5 -67t69.5 -163q0 -112 -86 -172q53 -30 86 -86.5 t33 -122.5q0 -110 -84.5 -183t-202.5 -73q-106 0 -185.5 62t-96.5 164zM406 0l878 1411h158l-879 -1411h-157zM1022 174v80l346 569h191v-506h100v-143h-100v-174h-168v174h-369zM1223 317h168v275z" />
<glyph unicode="&#xbf;" horiz-adv-x="1005" d="M80 379q0 49 12.5 94t26.5 74.5t44.5 65.5t46.5 51.5t52 47.5l2 2l2.5 2.5l2.5 2.5t2.5 2t2.5 2q42 38 65.5 63t47 69t23.5 89v51h252v-49q0 -172 -175 -340q-5 -5 -33 -31t-37.5 -35.5t-30.5 -34t-29.5 -41t-16.5 -41t-8 -48.5q0 -62 43.5 -103t120.5 -41q82 0 133.5 48 t54.5 127h252q-2 -191 -119 -310t-305 -119q-185 0 -308.5 114t-123.5 288zM373 1276q0 68 47.5 115t116.5 47q67 0 114 -47t47 -115q0 -69 -46.5 -116.5t-114.5 -47.5q-69 0 -116.5 47.5t-47.5 116.5z" />
<glyph unicode="&#xc0;" horiz-adv-x="1282" d="M-14 0l528 1411h262l520 -1411h-274l-121 324h-516l-123 -324h-276zM426 1817l219 61l209 -322l-156 -45zM461 551h366l-184 534z" />
<glyph unicode="&#xc1;" horiz-adv-x="1282" d="M-14 0l528 1411h262l520 -1411h-274l-121 324h-516l-123 -324h-276zM428 1559l211 319l215 -61l-270 -306zM461 551h366l-184 534z" />
<glyph unicode="&#xc2;" horiz-adv-x="1282" d="M-14 0l528 1411h262l520 -1411h-274l-121 324h-516l-123 -324h-276zM293 1581l260 289h186l248 -289l-158 -65l-192 188l-193 -188zM461 551h366l-184 534z" />
<glyph unicode="&#xc3;" horiz-adv-x="1282" d="M-14 0l528 1411h262l520 -1411h-274l-121 324h-516l-123 -324h-276zM332 1550q6 114 62.5 178t121.5 64q43 0 128 -42t108 -42q47 0 63 84l133 -12q-14 -123 -65.5 -181.5t-124.5 -58.5q-44 0 -92.5 21t-86.5 42t-57 21q-21 0 -38 -21t-21 -67zM461 551h366l-184 534z " />
<glyph unicode="&#xc4;" horiz-adv-x="1282" d="M-14 0l528 1411h262l520 -1411h-274l-121 324h-516l-123 -324h-276zM297 1690q0 59 40.5 100t98.5 41q59 0 100.5 -41.5t41.5 -99.5t-41.5 -99t-100.5 -41q-58 0 -98.5 40.5t-40.5 99.5zM461 551h366l-184 534zM705 1690q0 59 40.5 100t98.5 41t99.5 -41.5t41.5 -99.5 t-41 -99t-100 -41q-58 0 -98.5 40.5t-40.5 99.5z" />
<glyph unicode="&#xc5;" horiz-adv-x="1282" d="M-14 0l528 1411h262l520 -1411h-274l-121 324h-516l-123 -324h-276zM420 1690q0 92 64.5 157.5t156.5 65.5t157.5 -65.5t65.5 -157.5t-65.5 -157t-157.5 -65t-156.5 65t-64.5 157zM461 551h366l-184 534zM539 1690q0 -43 29.5 -73t72.5 -30q41 0 71.5 30.5t30.5 72.5 q0 41 -30.5 71.5t-71.5 30.5q-42 0 -72 -30t-30 -72z" />
<glyph unicode="&#xc6;" horiz-adv-x="1800" d="M-20 0l692 1411h837l47 -240h-550l65 -342h506l47 -235h-506l68 -356h559l47 -238h-819l-64 324h-489l-164 -324h-276zM516 551h348l-98 508z" />
<glyph unicode="&#xc7;" horiz-adv-x="1398" d="M80 705q0 200 97 368.5t264.5 266.5t365.5 98q169 0 316 -72t245 -199l-215 -159q-62 77 -152.5 120t-195.5 43q-190 0 -324.5 -137t-134.5 -329t134.5 -328.5t324.5 -136.5q105 0 196.5 43t153.5 120l213 -161q-100 -126 -247 -197.5t-316 -71.5q-148 0 -282 58 t-231 156.5t-154.5 233.5t-57.5 284zM471 -459l240 371l215 -62l-299 -354z" />
<glyph unicode="&#xc8;" horiz-adv-x="1028" d="M147 0v1411h791v-240h-530v-342h485v-235h-485v-356h538v-238h-799zM299 1817l219 61l209 -322l-156 -45z" />
<glyph unicode="&#xc9;" horiz-adv-x="1028" d="M147 0v1411h791v-240h-530v-342h485v-235h-485v-356h538v-238h-799zM301 1559l211 319l215 -61l-270 -306z" />
<glyph unicode="&#xca;" horiz-adv-x="1028" d="M147 0v1411h791v-240h-530v-342h485v-235h-485v-356h538v-238h-799zM166 1581l260 289h186l248 -289l-158 -65l-192 188l-193 -188z" />
<glyph unicode="&#xcb;" horiz-adv-x="1028" d="M147 0v1411h791v-240h-530v-342h485v-235h-485v-356h538v-238h-799zM170 1690q0 59 40.5 100t98.5 41q59 0 100.5 -41.5t41.5 -99.5t-41.5 -99t-100.5 -41q-58 0 -98.5 40.5t-40.5 99.5zM578 1690q0 59 40.5 100t98.5 41q59 0 100 -41.5t41 -99.5t-41 -99t-100 -41 q-58 0 -98.5 40.5t-40.5 99.5z" />
<glyph unicode="&#xcc;" horiz-adv-x="559" d="M4 1817l219 61l209 -322l-156 -45zM147 0v1411h261v-1411h-261z" />
<glyph unicode="&#xcd;" horiz-adv-x="559" d="M133 1559l211 319l215 -61l-270 -306zM147 0v1411h261v-1411h-261z" />
<glyph unicode="&#xce;" horiz-adv-x="559" d="M-68 1581l261 289h186l248 -289l-158 -65l-193 188l-192 -188zM147 0v1411h261v-1411h-261z" />
<glyph unicode="&#xcf;" horiz-adv-x="559" d="M-63 1690q0 59 40.5 100t98.5 41t99.5 -41.5t41.5 -99.5t-41 -99t-100 -41q-58 0 -98.5 40.5t-40.5 99.5zM147 0v1411h261v-1411h-261zM344 1690q0 59 40.5 100t98.5 41q59 0 100.5 -41.5t41.5 -99.5t-41.5 -99t-100.5 -41q-58 0 -98.5 40.5t-40.5 99.5z" />
<glyph unicode="&#xd0;" horiz-adv-x="1357" d="M-6 621v186h153v604h461q151 0 278.5 -56t212.5 -151.5t132 -223t47 -271.5q0 -197 -83.5 -359t-233 -256t-334.5 -94h-480v621h-153zM408 238h196q175 0 291.5 135t116.5 340q0 202 -117.5 330t-323.5 128h-163v-364h258v-186h-258v-383z" />
<glyph unicode="&#xd1;" horiz-adv-x="1445" d="M147 0v1411h238l651 -940v940h258v-1411h-233l-653 942v-942h-261zM414 1550q6 114 62.5 178t121.5 64q43 0 128 -42t108 -42q47 0 63 84l133 -12q-14 -123 -65.5 -181.5t-124.5 -58.5q-44 0 -92.5 21t-86.5 42t-57 21q-21 0 -38 -21t-21 -67z" />
<glyph unicode="&#xd2;" horiz-adv-x="1624" d="M80 705q0 200 97.5 368.5t265.5 266.5t368 98t368.5 -98t266.5 -266.5t98 -368.5q0 -150 -58 -285.5t-156 -233.5t-233.5 -155.5t-285.5 -57.5q-120 0 -231.5 37t-201.5 104.5t-157.5 157.5t-104 201.5t-36.5 231.5zM346 705q0 -193 136 -329t329 -136q194 0 330.5 136 t136.5 329q0 127 -62.5 234.5t-170 169.5t-234.5 62q-193 0 -329 -136t-136 -330zM598 1817l219 61l209 -322l-156 -45z" />
<glyph unicode="&#xd3;" horiz-adv-x="1624" d="M80 705q0 200 97.5 368.5t265.5 266.5t368 98t368.5 -98t266.5 -266.5t98 -368.5q0 -150 -58 -285.5t-156 -233.5t-233.5 -155.5t-285.5 -57.5q-120 0 -231.5 37t-201.5 104.5t-157.5 157.5t-104 201.5t-36.5 231.5zM346 705q0 -193 136 -329t329 -136q194 0 330.5 136 t136.5 329q0 127 -62.5 234.5t-170 169.5t-234.5 62q-193 0 -329 -136t-136 -330zM598 1559l211 319l215 -61l-270 -306z" />
<glyph unicode="&#xd4;" horiz-adv-x="1624" d="M80 705q0 200 97.5 368.5t265.5 266.5t368 98t368.5 -98t266.5 -266.5t98 -368.5q0 -150 -58 -285.5t-156 -233.5t-233.5 -155.5t-285.5 -57.5q-120 0 -231.5 37t-201.5 104.5t-157.5 157.5t-104 201.5t-36.5 231.5zM346 705q0 -193 136 -329t329 -136q194 0 330.5 136 t136.5 329q0 127 -62.5 234.5t-170 169.5t-234.5 62q-193 0 -329 -136t-136 -330zM465 1581l260 289h186l248 -289l-158 -65l-192 188l-193 -188z" />
<glyph unicode="&#xd5;" horiz-adv-x="1624" d="M80 705q0 200 97.5 368.5t265.5 266.5t368 98t368.5 -98t266.5 -266.5t98 -368.5q0 -150 -58 -285.5t-156 -233.5t-233.5 -155.5t-285.5 -57.5q-120 0 -231.5 37t-201.5 104.5t-157.5 157.5t-104 201.5t-36.5 231.5zM346 705q0 -193 136 -329t329 -136q194 0 330.5 136 t136.5 329q0 127 -62.5 234.5t-170 169.5t-234.5 62q-193 0 -329 -136t-136 -330zM504 1550q6 114 62.5 178t121.5 64q43 0 128 -42t108 -42q47 0 63 84l133 -12q-14 -123 -65.5 -181.5t-124.5 -58.5q-44 0 -92.5 21t-86.5 42t-57 21q-21 0 -38 -21t-21 -67z" />
<glyph unicode="&#xd6;" horiz-adv-x="1624" d="M80 705q0 200 97.5 368.5t265.5 266.5t368 98t368.5 -98t266.5 -266.5t98 -368.5q0 -150 -58 -285.5t-156 -233.5t-233.5 -155.5t-285.5 -57.5q-120 0 -231.5 37t-201.5 104.5t-157.5 157.5t-104 201.5t-36.5 231.5zM346 705q0 -193 136 -329t329 -136q194 0 330.5 136 t136.5 329q0 127 -62.5 234.5t-170 169.5t-234.5 62q-193 0 -329 -136t-136 -330zM467 1690q0 59 40.5 100t98.5 41q59 0 100.5 -41.5t41.5 -99.5t-41.5 -99t-100.5 -41q-58 0 -98.5 40.5t-40.5 99.5zM874 1690q0 59 41 100t99 41t99.5 -41.5t41.5 -99.5t-41 -99t-100 -41 q-58 0 -99 41t-41 99z" />
<glyph unicode="&#xd7;" horiz-adv-x="1026" d="M111 899l133 133l268 -270l268 268l133 -135l-268 -268l270 -269l-133 -133l-268 271l-268 -269l-133 135l266 267z" />
<glyph unicode="&#xd8;" horiz-adv-x="1613" d="M70 72l170 170q-164 201 -164 463q0 200 97.5 368.5t265.5 266.5t368 98q263 0 463 -166l172 172l102 -105l-170 -170q166 -207 166 -464q0 -150 -58 -285.5t-156 -233.5t-233.5 -155.5t-285.5 -57.5q-259 0 -463 164l-168 -170zM342 705q0 -153 86 -275l651 651 q-124 90 -272 90q-193 0 -329 -136t-136 -330zM535 326q119 -86 272 -86q194 0 330.5 136t136.5 329q0 151 -90 274z" />
<glyph unicode="&#xd9;" horiz-adv-x="1341" d="M141 530v881h260v-811q0 -184 68 -280.5t203 -96.5q268 0 268 377v811h260v-881q0 -259 -150.5 -407t-383.5 -148q-111 0 -206 35.5t-166.5 103.5t-112 175t-40.5 241zM457 1817l219 61l209 -322l-156 -45z" />
<glyph unicode="&#xda;" horiz-adv-x="1341" d="M141 530v881h260v-811q0 -184 68 -280.5t203 -96.5q268 0 268 377v811h260v-881q0 -259 -150.5 -407t-383.5 -148q-111 0 -206 35.5t-166.5 103.5t-112 175t-40.5 241zM457 1559l211 319l215 -61l-271 -306z" />
<glyph unicode="&#xdb;" horiz-adv-x="1341" d="M141 530v881h260v-811q0 -184 68 -280.5t203 -96.5q268 0 268 377v811h260v-881q0 -259 -150.5 -407t-383.5 -148q-111 0 -206 35.5t-166.5 103.5t-112 175t-40.5 241zM324 1581l260 289h186l248 -289l-158 -65l-192 188l-193 -188z" />
<glyph unicode="&#xdc;" horiz-adv-x="1341" d="M141 530v881h260v-811q0 -184 68 -280.5t203 -96.5q268 0 268 377v811h260v-881q0 -259 -150.5 -407t-383.5 -148q-111 0 -206 35.5t-166.5 103.5t-112 175t-40.5 241zM326 1690q0 59 40.5 100t98.5 41q59 0 100 -41.5t41 -99.5t-41 -99t-100 -41q-58 0 -98.5 40.5 t-40.5 99.5zM733 1690q0 59 40.5 100t98.5 41q59 0 100.5 -41.5t41.5 -99.5t-41.5 -99t-100.5 -41q-58 0 -98.5 40.5t-40.5 99.5z" />
<glyph unicode="&#xdd;" d="M-20 1411h305l311 -518l311 518h312l-494 -766v-645h-260v645zM385 1559l211 319l215 -61l-270 -306z" />
<glyph unicode="&#xde;" horiz-adv-x="1136" d="M147 0v1411h261v-219h231q146 0 250 -61t153.5 -161.5t49.5 -230.5q0 -93 -27.5 -172t-81 -140.5t-141 -96.5t-199.5 -35h-235v-295h-261zM408 535h178q121 0 180 55t59 149t-54.5 153.5t-164.5 59.5h-198v-417z" />
<glyph unicode="&#xdf;" horiz-adv-x="1155" d="M117 0v940q0 229 120.5 362.5t311.5 133.5q180 0 299 -112.5t119 -262.5q0 -86 -42 -153t-116 -101q134 -39 205 -139.5t71 -237.5q0 -195 -133.5 -324t-351.5 -129q-47 0 -115 11v225q39 -8 107 -8q112 0 180 68t68 167q0 107 -79 175.5t-200 68.5h-39v209h23 q73 0 124.5 49.5t51.5 114.5q0 60 -45 103.5t-127 43.5q-100 0 -141 -70.5t-41 -205.5v-928h-250z" />
<glyph unicode="&#xe0;" d="M70 479q0 145 69.5 261.5t175.5 177.5t222 61q179 0 294 -145v122h250v-956h-250v127q-106 -150 -290 -150q-90 0 -175 37t-150.5 101.5t-105.5 159.5t-40 204zM315 477q0 -116 74 -194t184 -78q114 0 188.5 76.5t74.5 193.5q0 119 -77 196t-188 77q-107 0 -181.5 -77.5 t-74.5 -193.5zM385 1407l219 61l209 -321l-156 -45z" />
<glyph unicode="&#xe1;" d="M70 479q0 145 69.5 261.5t175.5 177.5t222 61q179 0 294 -145v122h250v-956h-250v127q-106 -150 -290 -150q-90 0 -175 37t-150.5 101.5t-105.5 159.5t-40 204zM315 477q0 -116 74 -194t184 -78q114 0 188.5 76.5t74.5 193.5q0 119 -77 196t-188 77q-107 0 -181.5 -77.5 t-74.5 -193.5zM385 1149l211 319l215 -61l-270 -305z" />
<glyph unicode="&#xe2;" d="M70 479q0 145 69.5 261.5t175.5 177.5t222 61q179 0 294 -145v122h250v-956h-250v127q-106 -150 -290 -150q-90 0 -175 37t-150.5 101.5t-105.5 159.5t-40 204zM252 1171l260 289h186l248 -289l-158 -65l-192 188l-193 -188zM315 477q0 -116 74 -194t184 -78 q114 0 188.5 76.5t74.5 193.5q0 119 -77 196t-188 77q-107 0 -181.5 -77.5t-74.5 -193.5z" />
<glyph unicode="&#xe3;" d="M70 479q0 145 69.5 261.5t175.5 177.5t222 61q179 0 294 -145v122h250v-956h-250v127q-106 -150 -290 -150q-90 0 -175 37t-150.5 101.5t-105.5 159.5t-40 204zM291 1141q6 114 62.5 177.5t121.5 63.5q43 0 128 -42t108 -42q47 0 63 84l133 -12q-14 -123 -65.5 -181.5 t-124.5 -58.5q-44 0 -92.5 21t-86.5 42t-57 21q-21 0 -38 -21t-21 -67zM315 477q0 -116 74 -194t184 -78q114 0 188.5 76.5t74.5 193.5q0 119 -77 196t-188 77q-107 0 -181.5 -77.5t-74.5 -193.5z" />
<glyph unicode="&#xe4;" d="M70 479q0 145 69.5 261.5t175.5 177.5t222 61q179 0 294 -145v122h250v-956h-250v127q-106 -150 -290 -150q-90 0 -175 37t-150.5 101.5t-105.5 159.5t-40 204zM274 1280q0 59 41 100t99 41t99.5 -41.5t41.5 -99.5t-41 -98.5t-100 -40.5t-99.5 40.5t-40.5 98.5zM315 477 q0 -116 74 -194t184 -78q114 0 188.5 76.5t74.5 193.5q0 119 -77 196t-188 77q-107 0 -181.5 -77.5t-74.5 -193.5zM682 1280q0 59 40.5 100t98.5 41q59 0 100.5 -41.5t41.5 -99.5t-41.5 -98.5t-100.5 -40.5t-99 40.5t-40 98.5z" />
<glyph unicode="&#xe5;" d="M70 479q0 145 69.5 261.5t175.5 177.5t222 61q179 0 294 -145v122h250v-956h-250v127q-106 -150 -290 -150q-90 0 -175 37t-150.5 101.5t-105.5 159.5t-40 204zM315 477q0 -116 74 -194t184 -78q114 0 188.5 76.5t74.5 193.5q0 119 -77 196t-188 77q-107 0 -181.5 -77.5 t-74.5 -193.5zM377 1280q0 92 64.5 157.5t156.5 65.5t157.5 -65.5t65.5 -157.5t-65.5 -156.5t-157.5 -64.5t-156.5 64.5t-64.5 156.5zM496 1280q0 -43 29.5 -72.5t72.5 -29.5q42 0 72 30t30 72q0 41 -30.5 71.5t-71.5 30.5q-42 0 -72 -30t-30 -72z" />
<glyph unicode="&#xe6;" horiz-adv-x="1933" d="M96 479q0 145 69.5 261.5t175.5 177.5t222 61q89 0 174.5 -37t141.5 -108v122h182v-122q72 72 148 108.5t173 36.5q121 0 226.5 -67.5t168 -182t62.5 -246.5q0 -33 -4 -73h-721q21 -90 86 -147.5t158 -57.5q69 0 129 31.5t98 80.5l234 -79q-63 -116 -183 -188.5 t-247 -72.5q-186 0 -328 150v-127h-182v127q-52 -73 -136.5 -111.5t-175.5 -38.5q-90 0 -175 37t-150.5 101.5t-105.5 159.5t-40 204zM342 477q0 -115 73.5 -193.5t186.5 -78.5q111 0 185.5 77t74.5 193q0 119 -77 196t-185 77q-109 0 -183.5 -77.5t-74.5 -193.5zM1122 571 h455q-25 78 -86.5 127.5t-138.5 49.5t-140 -49.5t-90 -127.5z" />
<glyph unicode="&#xe7;" horiz-adv-x="1001" d="M70 477q0 136 68.5 251.5t186 183t255.5 67.5q118 0 221.5 -50t173.5 -136l-184 -152q-89 107 -211 107q-109 0 -187 -80.5t-78 -192.5t77.5 -191t185.5 -79q62 0 117.5 28.5t92.5 73.5l187 -145q-70 -86 -173.5 -135.5t-221.5 -49.5q-138 0 -255.5 67t-186 182 t-68.5 251zM274 -459l240 371l215 -62l-299 -354z" />
<glyph unicode="&#xe8;" horiz-adv-x="1116" d="M70 477q0 136 66 251.5t178.5 183t244.5 67.5t245 -67.5t178 -182t65 -246.5q0 -23 -5 -73h-720q21 -90 85.5 -147.5t157.5 -57.5q69 0 130 31.5t98 80.5l233 -79q-69 -119 -193.5 -190t-265.5 -71q-138 0 -252.5 67t-179.5 182t-65 251zM330 571h454q-25 78 -86.5 127.5 t-138.5 49.5t-139.5 -49.5t-89.5 -127.5zM344 1407l219 61l209 -321l-156 -45z" />
<glyph unicode="&#xe9;" horiz-adv-x="1116" d="M70 477q0 136 66 251.5t178.5 183t244.5 67.5t245 -67.5t178 -182t65 -246.5q0 -23 -5 -73h-720q21 -90 85.5 -147.5t157.5 -57.5q69 0 130 31.5t98 80.5l233 -79q-69 -119 -193.5 -190t-265.5 -71q-138 0 -252.5 67t-179.5 182t-65 251zM330 571h454q-25 78 -86.5 127.5 t-138.5 49.5t-139.5 -49.5t-89.5 -127.5zM344 1149l211 319l215 -61l-270 -305z" />
<glyph unicode="&#xea;" horiz-adv-x="1116" d="M70 477q0 136 66 251.5t178.5 183t244.5 67.5t245 -67.5t178 -182t65 -246.5q0 -23 -5 -73h-720q21 -90 85.5 -147.5t157.5 -57.5q69 0 130 31.5t98 80.5l233 -79q-69 -119 -193.5 -190t-265.5 -71q-138 0 -252.5 67t-179.5 182t-65 251zM211 1171l260 289h186l248 -289 l-157 -65l-193 188l-193 -188zM330 571h454q-25 78 -86.5 127.5t-138.5 49.5t-139.5 -49.5t-89.5 -127.5z" />
<glyph unicode="&#xeb;" horiz-adv-x="1116" d="M70 477q0 136 66 251.5t178.5 183t244.5 67.5t245 -67.5t178 -182t65 -246.5q0 -23 -5 -73h-720q21 -90 85.5 -147.5t157.5 -57.5q69 0 130 31.5t98 80.5l233 -79q-69 -119 -193.5 -190t-265.5 -71q-138 0 -252.5 67t-179.5 182t-65 251zM213 1280q0 59 40.5 100t98.5 41 q59 0 100.5 -41.5t41.5 -99.5t-41.5 -98.5t-100.5 -40.5q-58 0 -98.5 40.5t-40.5 98.5zM330 571h454q-25 78 -86.5 127.5t-138.5 49.5t-139.5 -49.5t-89.5 -127.5zM621 1280q0 59 40.5 100t98.5 41t99.5 -41.5t41.5 -99.5t-41 -98.5t-100 -40.5q-58 0 -98.5 40.5t-40.5 98.5 z" />
<glyph unicode="&#xec;" horiz-adv-x="475" d="M-41 1407l219 61l209 -321l-156 -45zM117 0v956h250v-956h-250z" />
<glyph unicode="&#xed;" horiz-adv-x="475" d="M98 1149l211 319l215 -61l-270 -305zM117 0v956h250v-956h-250z" />
<glyph unicode="&#xee;" horiz-adv-x="475" d="M-109 1171l261 289h186l248 -289l-158 -65l-192 188l-193 -188zM117 0v956h250v-956h-250z" />
<glyph unicode="&#xef;" horiz-adv-x="475" d="M-106 1280q0 59 40.5 100t98.5 41q59 0 100 -41.5t41 -99.5t-41 -98.5t-100 -40.5t-99 40.5t-40 98.5zM117 0v956h250v-956h-250zM301 1280q0 59 40.5 100t98.5 41q59 0 100.5 -41.5t41.5 -99.5t-41.5 -98.5t-100.5 -40.5q-58 0 -98.5 40.5t-40.5 98.5z" />
<glyph unicode="&#xf0;" horiz-adv-x="1140" d="M70 446q0 200 131.5 334.5t330.5 134.5q62 0 109 -16q-89 143 -149 203l-173 -101l-73 111l153 88q-98 94 -157 141l153 95q110 -61 185 -133l170 98l77 -111l-149 -84q393 -416 393 -749q0 -213 -141.5 -346.5t-358.5 -133.5q-215 0 -358 130.5t-143 338.5zM315 449 q0 -106 74 -175t182 -69q110 0 182 69t72 177q0 106 -72 173.5t-180 67.5q-109 0 -183.5 -68t-74.5 -175z" />
<glyph unicode="&#xf1;" horiz-adv-x="1122" d="M117 0v956h250v-141q96 164 297 164q163 0 254.5 -107t91.5 -309v-563h-250v518q0 117 -49.5 173.5t-137.5 56.5q-95 0 -150.5 -68.5t-55.5 -214.5v-465h-250zM252 1141q6 114 62.5 177.5t121.5 63.5q43 0 128 -42t108 -42q47 0 63 84l133 -12q-14 -123 -65.5 -181.5 t-124.5 -58.5q-44 0 -92.5 21t-86.5 42t-57 21q-21 0 -38 -21t-21 -67z" />
<glyph unicode="&#xf2;" horiz-adv-x="1157" d="M70 477q0 136 68.5 251.5t186 183t255.5 67.5q210 0 358.5 -147.5t148.5 -354.5q0 -136 -67.5 -251t-184.5 -182t-255 -67t-255.5 67t-186 182t-68.5 251zM315 475q0 -112 78 -191t187 -79t185.5 79t76.5 191q0 113 -76.5 193t-185.5 80t-187 -80.5t-78 -192.5zM365 1407 l219 61l209 -321l-156 -45z" />
<glyph unicode="&#xf3;" horiz-adv-x="1157" d="M70 477q0 136 68.5 251.5t186 183t255.5 67.5q210 0 358.5 -147.5t148.5 -354.5q0 -136 -67.5 -251t-184.5 -182t-255 -67t-255.5 67t-186 182t-68.5 251zM315 475q0 -112 78 -191t187 -79t185.5 79t76.5 191q0 113 -76.5 193t-185.5 80t-187 -80.5t-78 -192.5zM365 1149 l210 319l216 -61l-271 -305z" />
<glyph unicode="&#xf4;" horiz-adv-x="1157" d="M70 477q0 136 68.5 251.5t186 183t255.5 67.5q210 0 358.5 -147.5t148.5 -354.5q0 -136 -67.5 -251t-184.5 -182t-255 -67t-255.5 67t-186 182t-68.5 251zM231 1171l261 289h186l248 -289l-158 -65l-193 188l-192 -188zM315 475q0 -112 78 -191t187 -79t185.5 79 t76.5 191q0 113 -76.5 193t-185.5 80t-187 -80.5t-78 -192.5z" />
<glyph unicode="&#xf5;" horiz-adv-x="1157" d="M70 477q0 136 68.5 251.5t186 183t255.5 67.5q210 0 358.5 -147.5t148.5 -354.5q0 -136 -67.5 -251t-184.5 -182t-255 -67t-255.5 67t-186 182t-68.5 251zM270 1141q6 114 63 177.5t122 63.5q43 0 127.5 -42t107.5 -42q48 0 64 84l133 -12q-14 -123 -66 -181.5 t-125 -58.5q-44 0 -92 21t-86 42t-57 21q-22 0 -39 -21t-21 -67zM315 475q0 -112 78 -191t187 -79t185.5 79t76.5 191q0 113 -76.5 193t-185.5 80t-187 -80.5t-78 -192.5z" />
<glyph unicode="&#xf6;" horiz-adv-x="1157" d="M70 477q0 136 68.5 251.5t186 183t255.5 67.5q210 0 358.5 -147.5t148.5 -354.5q0 -136 -67.5 -251t-184.5 -182t-255 -67t-255.5 67t-186 182t-68.5 251zM233 1280q0 59 41 100t99 41q59 0 100 -41.5t41 -99.5t-41 -98.5t-100 -40.5t-99.5 40.5t-40.5 98.5zM315 475 q0 -112 78 -191t187 -79t185.5 79t76.5 191q0 113 -76.5 193t-185.5 80t-187 -80.5t-78 -192.5zM641 1280q0 59 40.5 100t98.5 41q59 0 100.5 -41.5t41.5 -99.5t-41.5 -98.5t-100.5 -40.5q-58 0 -98.5 40.5t-40.5 98.5z" />
<glyph unicode="&#xf7;" horiz-adv-x="1124" d="M111 535v188h903v-188h-903zM422 313q0 59 40.5 99.5t98.5 40.5t98.5 -40.5t40.5 -99.5t-40 -99t-99 -40t-99 40t-40 99zM422 944q0 58 40 98.5t99 40.5t99 -40.5t40 -98.5t-40 -98.5t-99 -40.5t-99 40.5t-40 98.5z" />
<glyph unicode="&#xf8;" horiz-adv-x="1214" d="M70 55l127 123q-101 131 -101 299q0 136 68.5 251.5t186 183t255.5 67.5q176 0 314 -109l133 127l92 -94l-133 -127q102 -136 102 -299q0 -136 -68 -251t-185.5 -182t-256.5 -67q-181 0 -315 109l-129 -123zM342 473q0 -67 31 -127l375 359q-65 43 -142 43 q-109 0 -186.5 -80.5t-77.5 -194.5zM461 250q64 -45 145 -45q109 0 185.5 79t76.5 191q0 69 -32 131z" />
<glyph unicode="&#xf9;" horiz-adv-x="1120" d="M113 393v563h249v-518q0 -118 49.5 -175.5t137.5 -57.5q95 0 150 70t55 217v464h250v-956h-250v141q-96 -164 -297 -164q-162 0 -253 108t-91 308zM346 1407l219 61l209 -321l-156 -45z" />
<glyph unicode="&#xfa;" horiz-adv-x="1120" d="M113 393v563h249v-518q0 -118 49.5 -175.5t137.5 -57.5q95 0 150 70t55 217v464h250v-956h-250v141q-96 -164 -297 -164q-162 0 -253 108t-91 308zM346 1149l211 319l215 -61l-270 -305z" />
<glyph unicode="&#xfb;" horiz-adv-x="1120" d="M113 393v563h249v-518q0 -118 49.5 -175.5t137.5 -57.5q95 0 150 70t55 217v464h250v-956h-250v141q-96 -164 -297 -164q-162 0 -253 108t-91 308zM213 1171l260 289h186l248 -289l-157 -65l-193 188l-192 -188z" />
<glyph unicode="&#xfc;" horiz-adv-x="1120" d="M113 393v563h249v-518q0 -118 49.5 -175.5t137.5 -57.5q95 0 150 70t55 217v464h250v-956h-250v141q-96 -164 -297 -164q-162 0 -253 108t-91 308zM215 1280q0 59 40.5 100t98.5 41q59 0 100.5 -41.5t41.5 -99.5t-41.5 -98.5t-100.5 -40.5q-58 0 -98.5 40.5t-40.5 98.5z M623 1280q0 59 40.5 100t98.5 41t99.5 -41.5t41.5 -99.5t-41 -98.5t-100 -40.5q-58 0 -98.5 40.5t-40.5 98.5z" />
<glyph unicode="&#xfd;" horiz-adv-x="1034" d="M-8 956h276l258 -581l246 581h270l-520 -1171q-18 -40 -37.5 -73t-39.5 -58.5t-41.5 -45.5t-43.5 -34t-45.5 -24.5t-47 -16t-48.5 -9.5t-50 -5t-51 -2t-52 0h-27h-23l29 225h21q40 0 69 5.5t62 22.5t62 54t54 94l78 174zM305 1149l211 319l215 -61l-270 -305z" />
<glyph unicode="&#xfe;" horiz-adv-x="1200" d="M117 -483v1894h250v-582q106 150 290 150q90 0 175 -37t150.5 -101.5t105.5 -159.5t40 -204t-40.5 -204.5t-106.5 -159t-149.5 -100t-169.5 -36.5q-179 0 -295 146v-606h-250zM362 481q0 -119 77 -195.5t188 -76.5q107 0 181.5 77t74.5 193t-74 194.5t-184 78.5 q-114 0 -188.5 -77t-74.5 -194z" />
<glyph unicode="&#xff;" horiz-adv-x="1034" d="M-8 956h276l258 -581l246 581h270l-520 -1171q-18 -40 -37.5 -73t-39.5 -58.5t-41.5 -45.5t-43.5 -34t-45.5 -24.5t-47 -16t-48.5 -9.5t-50 -5t-51 -2t-52 0h-27h-23l29 225h21q40 0 69 5.5t62 22.5t62 54t54 94l78 174zM174 1280q0 59 40.5 100t98.5 41 q59 0 100.5 -41.5t41.5 -99.5t-41.5 -98.5t-100.5 -40.5t-99 40.5t-40 98.5zM582 1280q0 59 40.5 100t98.5 41q59 0 100 -41.5t41 -99.5t-41 -98.5t-100 -40.5t-99 40.5t-40 98.5z" />
<glyph unicode="&#x152;" horiz-adv-x="2146" d="M80 705q0 200 97.5 368.5t265.5 266.5t368 98q256 0 455 -168v141h790v-240h-530v-342h485v-235h-485v-356h538v-238h-798v139q-196 -166 -455 -166q-120 0 -231.5 37t-201.5 104.5t-157.5 157.5t-104 201.5t-36.5 231.5zM346 705q0 -193 136 -329t329 -136 q190 0 322.5 135.5t132.5 329.5t-132.5 330t-322.5 136q-193 0 -329 -136t-136 -330z" />
<glyph unicode="&#x153;" horiz-adv-x="1894" d="M70 477q0 136 68.5 251.5t186 183t255.5 67.5q113 0 213.5 -47t171.5 -129q70 82 166 129t206 47q132 0 245 -67.5t178 -182t65 -246.5q0 -33 -4 -73h-721q21 -90 85.5 -147.5t157.5 -57.5q69 0 130 31.5t98 80.5l233 -79q-69 -119 -193 -190t-265 -71q-114 0 -213 46.5 t-168 128.5q-71 -81 -171.5 -128t-213.5 -47q-138 0 -255.5 67t-186 182t-68.5 251zM315 475q0 -112 78 -191t187 -79t185.5 79t76.5 191q0 113 -76.5 193t-185.5 80t-187 -80.5t-78 -192.5zM1108 571h455q-25 78 -87 127.5t-139 49.5t-139.5 -49.5t-89.5 -127.5z" />
<glyph unicode="&#x178;" d="M-20 1411h305l311 -518l311 518h312l-494 -766v-645h-260v645zM254 1690q0 59 40.5 100t98.5 41q59 0 100.5 -41.5t41.5 -99.5t-41.5 -99t-100.5 -41q-58 0 -98.5 40.5t-40.5 99.5zM662 1690q0 59 40.5 100t98.5 41q59 0 100 -41.5t41 -99.5t-41 -99t-100 -41 q-58 0 -98.5 40.5t-40.5 99.5z" />
<glyph unicode="&#x2c6;" horiz-adv-x="1024" d="M164 1171l260 289h186l248 -289l-158 -65l-192 188l-193 -188z" />
<glyph unicode="&#x2dc;" horiz-adv-x="1024" d="M203 1141q6 114 62.5 177.5t121.5 63.5q43 0 128 -42t108 -42q47 0 63 84l133 -12q-14 -123 -65.5 -181.5t-124.5 -58.5q-44 0 -92.5 21t-86.5 42t-57 21q-21 0 -38 -21t-21 -67z" />
<glyph unicode="&#x2000;" horiz-adv-x="956" />
<glyph unicode="&#x2001;" horiz-adv-x="1913" />
<glyph unicode="&#x2002;" horiz-adv-x="956" />
<glyph unicode="&#x2003;" horiz-adv-x="1913" />
<glyph unicode="&#x2004;" horiz-adv-x="637" />
<glyph unicode="&#x2005;" horiz-adv-x="478" />
<glyph unicode="&#x2006;" horiz-adv-x="318" />
<glyph unicode="&#x2007;" horiz-adv-x="318" />
<glyph unicode="&#x2008;" horiz-adv-x="239" />
<glyph unicode="&#x2009;" horiz-adv-x="382" />
<glyph unicode="&#x200a;" horiz-adv-x="106" />
<glyph unicode="&#x2010;" horiz-adv-x="716" d="M61 373v219h594v-219h-594z" />
<glyph unicode="&#x2011;" horiz-adv-x="716" d="M61 373v219h594v-219h-594z" />
<glyph unicode="&#x2012;" horiz-adv-x="716" d="M61 373v219h594v-219h-594z" />
<glyph unicode="&#x2013;" horiz-adv-x="1202" d="M123 373v219h956v-219h-956z" />
<glyph unicode="&#x2014;" horiz-adv-x="1576" d="M61 373v219h1455v-219h-1455z" />
<glyph unicode="&#x2018;" horiz-adv-x="532" d="M90 909q64 271 256 539l141 -39q-122 -235 -172 -500h-225z" />
<glyph unicode="&#x2019;" horiz-adv-x="524" d="M53 911q122 235 172 500h226q-64 -271 -256 -539z" />
<glyph unicode="&#x201a;" horiz-adv-x="528" d="M35 -213q122 235 172 500h225q-64 -271 -256 -539z" />
<glyph unicode="&#x201c;" horiz-adv-x="894" d="M88 909q64 271 256 539l141 -39q-122 -235 -172 -500h-225zM449 909q64 271 256 539l141 -39q-122 -235 -172 -500h-225z" />
<glyph unicode="&#x201d;" horiz-adv-x="886" d="M53 911q122 235 172 500h226q-64 -271 -256 -539zM414 911q122 235 172 500h225q-64 -271 -256 -539z" />
<glyph unicode="&#x201e;" horiz-adv-x="890" d="M37 -213q122 235 172 500h225q-64 -271 -256 -539zM397 -213q122 235 172 500h226q-64 -271 -256 -539z" />
<glyph unicode="&#x2022;" horiz-adv-x="1175" d="M291 602q0 124 87.5 211.5t211.5 87.5t211.5 -87.5t87.5 -211.5t-87.5 -211.5t-211.5 -87.5t-211.5 87.5t-87.5 211.5z" />
<glyph unicode="&#x2026;" horiz-adv-x="1701" d="M98 139q0 69 47 116.5t115 47.5q69 0 116.5 -47.5t47.5 -116.5q0 -68 -47.5 -115t-116.5 -47q-68 0 -115 47.5t-47 114.5zM688 139q0 69 47 116.5t115 47.5q69 0 116.5 -47.5t47.5 -116.5q0 -68 -47.5 -115t-116.5 -47q-68 0 -115 47.5t-47 114.5zM1278 139 q0 69 47 116.5t115 47.5q69 0 116.5 -47.5t47.5 -116.5q0 -68 -47.5 -115t-116.5 -47q-68 0 -115 47.5t-47 114.5z" />
<glyph unicode="&#x202f;" horiz-adv-x="382" />
<glyph unicode="&#x2039;" horiz-adv-x="618" d="M72 473l299 430l174 -53l-262 -377l264 -373l-176 -55z" />
<glyph unicode="&#x203a;" horiz-adv-x="618" d="M72 100l264 373l-262 377l174 53l299 -430l-299 -428z" />
<glyph unicode="&#x205f;" horiz-adv-x="478" />
<glyph unicode="&#x20ac;" horiz-adv-x="1193" d="M33 467v164h110q-2 25 -2 74v40h-108v164h137q65 232 258 380.5t440 148.5q125 0 240 -39v-295q-109 67 -242 67q-134 0 -244.5 -72t-168.5 -190h405v-164h-450v-40q0 -37 6 -74h444v-164h-387q61 -104 166 -165.5t229 -61.5q139 0 242 63v-289q-115 -41 -242 -41 q-236 0 -424.5 138t-261.5 356h-147z" />
<glyph unicode="&#x2122;" horiz-adv-x="1490" d="M35 1266v145h536v-145h-188v-635h-162v635h-186zM672 631v780h145l215 -309l215 309h146v-780h-162v493l-199 -286l-198 286v-493h-162z" />
<glyph unicode="&#x25fc;" horiz-adv-x="952" d="M0 0v952h952v-952h-952z" />
</font>
</defs>
</svg>
